Coordinates
version=1
nRows=13
nColumns=36
inDegrees=yes

Units are S.I. units (second, meters, Newtons, ...)
If the header above contains a line with 'inDegrees', this indicates whether rotational values are in degrees (yes) or radians (no).

endheader
time	pelvis_tilt	pelvis_list	pelvis_rotation	pelvis_tx	pelvis_ty	pelvis_tz	hip_flexion_r	hip_adduction_r	hip_rotation_r	knee_angle_r	knee_angle_r_beta	ankle_angle_r	subtalar_angle_r	mtp_angle_r	hip_flexion_l	hip_adduction_l	hip_rotation_l	knee_angle_l	knee_angle_l_beta	ankle_angle_l	subtalar_angle_l	mtp_angle_l	lumbar_extension	lumbar_bending	lumbar_rotation	arm_flex_r	arm_add_r	arm_rot_r	elbow_flex_r	pro_sup_r	arm_flex_l	arm_add_l	arm_rot_l	elbow_flex_l	pro_sup_l
     13.48333330	      3.00375966	     -2.94096121	      2.49388246	      0.57045770	      1.05484417	      0.86054026	      0.87533307	      4.29543318	     -7.02348800	     13.89666397	      0.24254254	     14.24748456	     -2.48603329	     -7.49999987	     19.75357259	     -6.27867901	      2.42274235	     54.63819682	      0.95361643	      1.29989890	    -11.63970374	     -7.49999987	    -20.42779750	      6.59332345	      4.97829589	      6.43720060	    -12.81480077	     -8.22664815	     34.65370013	     71.10745389	      1.74719008	     -5.09810066	     -1.51374700	     20.48952529	     68.15889458
     13.50000000	      2.57215188	     -2.47776921	      2.71286051	      0.56610542	      1.05488173	      0.85702308	      0.29454727	      3.80357745	     -7.30640281	     13.35928679	      0.23316354	     14.51382221	     -2.38056750	     -7.49999987	     21.88027713	     -5.98996693	      1.57786669	     51.90308951	      0.90587980	      2.73094905	    -11.24585985	     -7.49999987	    -20.26932507	      6.07050090	      5.27339316	      7.26335921	    -13.29224852	     -7.45623872	     36.42579458	     71.26133626	      1.12328101	     -5.09847234	     -1.08859772	     20.80455740	     68.13948172
     13.51666670	      2.38520823	     -2.22697676	      2.99938828	      0.56211804	      1.05657437	      0.85445978	     -0.58645201	      3.53843994	     -7.86052649	     12.51977899	      0.21851137	     14.74533728	     -1.78409912	     -7.49999987	     23.68361552	     -5.75888562	      0.92966565	     48.74096713	      0.85069036	      4.06678674	    -10.60391967	     -7.49999987	    -20.57998228	      5.93357042	      5.53870919	      7.86733814	    -14.28532775	     -5.36914249	     38.78454274	     71.71746648	      0.51699813	     -5.07163784	     -0.10464413	     21.42097183	     68.12997096
     13.53333330	      1.95780047	     -1.96444300	      3.22336560	      0.55677255	      1.05700260	      0.85323190	     -1.16858702	      3.26391464	     -8.21191671	     11.62640171	      0.20291899	     15.15492625	     -1.39348120	     -7.49999987	     25.69942103	     -5.41340126	      0.24823222	     45.19313754	      0.78876905	      5.00263844	     -9.64872453	     -7.49999987	    -20.61866312	      5.75400423	      5.62130017	      8.71854437	    -14.84078012	     -4.48394357	     40.06705225	     71.58965092	     -0.07262579	     -4.90196609	      0.17044703	     21.85305416	     67.80558540
     13.55000000	      1.49469335	     -1.83095103	      3.55898077	      0.55126783	      1.05641427	      0.85258097	     -1.71536728	      3.11196590	     -8.67901974	     10.72444465	      0.18717687	     16.07670201	     -0.65504474	     -7.49999987	     27.73960955	     -5.07680506	     -0.28765355	     41.37808414	      0.72218381	      5.73403934	     -8.46667254	     -7.49999987	    -20.61418436	      5.79313480	      5.46225832	      9.46111390	    -15.68584916	     -2.38291979	     41.49016429	     71.77141413	     -0.45810822	     -4.72377102	      0.95106136	     21.74966828	     67.49257060
     13.56666670	      1.29284657	     -1.68698739	      4.02969197	      0.54826736	      1.05511494	      0.85227858	     -2.71218084	      3.01023869	     -9.21433735	      9.63109851	      0.16809438	     17.18768692	      0.25570623	     -7.49999987	     29.30491780	     -4.61032314	     -0.53509208	     37.20960796	      0.64943017	      6.31149117	     -7.43083546	     -7.49999987	    -20.75802559	      5.85119271	      5.29348749	     10.25969661	    -16.15828432	     -1.39809094	     42.30733018	     71.88001438	     -0.79542454	     -4.55898283	      1.27105270	     21.85922950	     67.30474216
     13.58333330	      1.17253491	     -1.54042017	      4.60552774	      0.54814837	      1.05335291	      0.85181859	     -4.07272598	      3.03970922	     -9.47920864	      8.25757148	      0.14412181	     17.84264962	      0.58486051	     -7.49999987	     30.47274858	     -4.02893347	     -0.38849436	     32.77370367	      0.57200904	      6.89826227	     -6.59577530	     -7.49999987	    -20.70213621	      5.91452148	      5.16883374	     10.87271243	    -16.39002807	     -0.85895238	     42.83193000	     72.06550562	     -0.94605308	     -4.44639077	      1.31822854	     21.51620596	     67.29299708
     13.60000000	      1.80495245	     -1.26155818	      5.33903283	      0.54950653	      1.05255530	      0.85022127	     -6.55947933	      3.09540251	    -10.09486716	      6.61918957	      0.11552665	     18.19070087	      1.57955764	     -7.49999987	     30.45877377	     -3.23505533	      0.21808761	     28.25048693	      0.49306401	      7.48539483	     -5.90620197	     -7.49999987	    -21.35454196	      5.99493472	      4.44007302	     11.97534762	    -16.63652766	      1.00709391	     43.27295930	     72.43348092	     -1.23239684	     -4.47102809	      1.01934841	     21.40696213	     67.08087363
     13.61666670	      2.18488129	     -0.92698574	      5.92907710	      0.55153188	      1.05172417	      0.84822950	     -8.97267861	      3.19710533	     -9.76225976	      4.91495805	      0.08578220	     17.35484444	      1.07467653	     -7.49999987	     30.41434183	     -2.37775215	      1.07821249	     24.11820887	      0.42094215	      8.14587738	     -5.19880289	     -7.49999987	    -21.48402523	      5.81293774	      4.49145338	     12.44008106	    -16.74349249	      1.63126679	     43.00981865	     72.15126956	     -1.30860700	     -4.46183659	      0.64119592	     21.01685386	     66.69069313
     13.63333330	      2.62711722	     -0.25953074	      6.66486110	      0.55277682	      1.04970700	      0.84658812	    -11.43832107	      2.93940272	    -10.43693543	      3.58823599	      0.06262653	     17.10499162	      2.28923154	     -7.49999987	     30.16398910	     -1.12757424	      2.13593921	     20.72196671	      0.36166655	      9.00430583	     -4.40821756	     -7.49999987	    -21.81195634	      5.37236412	      3.07625097	     13.55811594	    -16.54163829	      3.92722759	     42.59375338	     72.00203398	     -2.16472502	     -4.69353710	     -0.39918614	     21.39731376	     66.26896010
     13.65000000	      2.44679346	      0.32509970	      6.90364242	      0.55264381	      1.04528374	      0.84615242	    -12.94165397	      2.59373710	    -10.18164253	      2.76533506	      0.04826420	     16.72505865	      2.56829847	     -7.49999987	     30.65999579	     -0.14651707	      2.91798753	     18.42146361	      0.32151519	     10.03890127	     -3.64103732	     -7.49999987	    -21.42800529	      4.69563641	      2.32555915	     14.26657105	    -16.27677192	      5.72624295	     41.66568500	     71.81416280	     -3.09520060	     -4.75741431	     -2.13446570	     21.76823981	     66.15580611
     13.66666670	      1.87469611	      0.70247796	      6.82234918	      0.55151866	      1.03918697	      0.84558185	    -13.60659237	      2.27645683	     -9.71471601	      2.47637351	      0.04322087	     16.76699987	      2.81618011	     -7.49999987	     31.79829096	      0.51063833	      3.42625344	     17.41099167	      0.30387913	     11.04592830	     -2.99720448	     -7.49999987	    -20.63936196	      4.03837044	      2.20105592	     14.61275730	    -16.10374865	      7.14577798	     40.72536468	     71.44754962	     -3.64976776	     -4.79191449	     -3.28131194	     21.54658224	     66.26231190
     13.68333330	      1.35127235	      0.96015857	      6.65186617	      0.55091979	      1.03218904	      0.84374536	    -13.94160787	      1.98435592	     -9.16694559	      2.66499829	      0.04651299	     17.28263436	      2.98221945	     -7.49999987	     33.10178503	      1.01900808	      3.80409592	     17.82762702	      0.31115079	     11.88479309	     -2.58660917	     -7.49999987	    -20.03436822	      3.50507599	      2.08831559	     14.94149080	    -15.89200794	      8.13955960	     39.95610116	     71.15090623	     -4.17226030	     -4.81993841	     -4.30985647	     21.72078873	     66.18157737
